#N canvas -8 -8 1920 997 10;
#X obj 23 387 notein;
#X obj 20 411 noteout;
#X obj 86 388 ctlin;
#X obj 84 411 ctlout;
#X obj 200 112 &;
#X floatatom 200 263 5 0 0 1 output - -, f 5;
#X obj 307 82 < 9900;
#X obj 73 83 > 5000;
#X obj 130 237 int;
#X obj 111 196 del 1 1 samp;
#X obj 111 172 select 0;
#X obj 200 295 - 8192;
#X floatatom 345 273 5 0 0 1 input_midi_value - -, f 5;
#X obj 279 259 div 128;
#X floatatom 345 290 5 0 0 1 output_midi_value - -, f 5;
#X obj 289 275 div 128;
#X obj 11 110 bendout;
#X obj 200 149 ==;
#X obj 199 220 int 8192;
#X obj 17 54 s b1;
#X obj 153 217 r b1;
#X obj 200 319 s bc1;
#X obj 11 83 r bc1;
#X obj 199 36 r b1;
#X text 118 82 <-- pitch bend dead zone -->;
#X obj 17 13 bendin;
#X text 260 172 inside \, bang once;
#X obj 219 281 bng 10 250 50 0 empty empty value_changing 17 7 0 10
-262144 -258113 -258113;
#X obj 200 172 select 0;
#X text 224 150 act on clamp border only;
#X obj 139 387 touchin;
#X obj 139 423 touchout;
#X text 127 12 fix my fucked up PITCH BEND :-);
#X floatatom 204 246 5 0 0 1 input - -, f 5;
#X text 238 319 send to midi-out;
#X text 14 368 pass thru note/control/aftertouch;
#X connect 0 0 1 0;
#X connect 0 1 1 1;
#X connect 0 2 1 2;
#X connect 2 0 3 0;
#X connect 2 1 3 1;
#X connect 2 2 3 2;
#X connect 4 0 10 0;
#X connect 4 0 17 0;
#X connect 4 0 17 1;
#X connect 5 0 15 0;
#X connect 5 0 11 0;
#X connect 5 0 27 0;
#X connect 6 0 4 1;
#X connect 7 0 4 0;
#X connect 8 0 5 0;
#X connect 9 0 8 0;
#X connect 10 0 9 0;
#X connect 11 0 21 0;
#X connect 13 0 12 0;
#X connect 15 0 14 0;
#X connect 17 0 28 0;
#X connect 18 0 5 0;
#X connect 20 0 8 1;
#X connect 20 0 33 0;
#X connect 22 0 16 0;
#X connect 23 0 7 0;
#X connect 23 0 6 0;
#X connect 25 0 19 0;
#X connect 25 1 16 1;
#X connect 28 0 18 0;
#X connect 30 0 31 0;
#X connect 30 1 31 1;
#X connect 33 0 13 0;
#X coords 0 1994 2 1992 42 30 0;
